<?xml version="1.0" standalone="no"?>
<!DOCTYPE svg PUBLIC "-//W3C//DTD SVG 20010904//EN"
 "http://www.w3.org/TR/2001/REC-SVG-20010904/DTD/svg10.dtd">
<svg version="1.0" xmlns="http://www.w3.org/2000/svg"
 width="260.000000pt" height="260.000000pt" viewBox="0 0 260.000000 260.000000"
 preserveAspectRatio="xMidYMid meet">
<metadata>
Created by potrace 1.11, written by Peter Selinger 2001-2013
</metadata>
<g transform="translate(0.000000,260.000000) scale(0.100000,-0.100000)"
fill="#000000" stroke="none">
<path d="M1190 2212 c-90 -30 -149 -70 -245 -167 -316 -316 -497 -860 -416
-1250 31 -153 113 -280 219 -342 148 -87 413 -96 602 -20 248 100 435 328 516
628 10 36 30 78 46 97 36 42 43 74 29 123 -19 62 -55 79 -172 79 -319 0 -645
-59 -773 -141 -74 -47 -81 -138 -15 -193 35 -30 73 -33 127 -10 123 53 294 94
455 109 l69 7 -7 -34 c-4 -18 -21 -66 -37 -106 -105 -254 -311 -394 -559 -379
-150 9 -227 59 -265 169 -29 82 -27 370 3 490 46 180 128 345 253 507 91 117
146 170 205 197 86 41 166 27 323 -53 112 -57 128 -61 172 -38 41 21 60 53 60
99 0 56 -35 96 -127 144 -172 88 -351 121 -463 84z"/>
</g>
</svg>
